<?xml version="1.0" standalone="no"?>
<!DOCTYPE svg PUBLIC "-//W3C//DTD SVG 20010904//EN"
 "http://www.w3.org/TR/2001/REC-SVG-20010904/DTD/svg10.dtd">
<svg version="1.0" xmlns="http://www.w3.org/2000/svg"
 width="512.000000pt" height="512.000000pt" viewBox="0 0 512.000000 512.000000"
 preserveAspectRatio="xMidYMid meet">

<g transform="translate(0.000000,512.000000) scale(0.100000,-0.100000)"
fill="#000000" stroke="none">
<path d="M2237 4448 l-897 -522 0 -77 c0 -43 3 -85 6 -94 18 -47 -55 -45 1824
-45 l1762 0 29 29 c27 28 29 35 29 108 l0 79 -277 161 c-363 211 -672 390
-1138 662 -267 155 -389 221 -410 221 -22 0 -278 -144 -928 -522z m1051 30
c54 -36 94 -106 100 -174 4 -44 -1 -64 -23 -109 -101 -208 -404 -150 -423 81
-8 91 51 187 138 223 14 6 57 10 96 8 58 -2 78 -7 112 -29z"/>
<path d="M1640 3470 l0 -80 120 0 c164 0 220 -26 273 -125 20 -37 22 -57 25
-277 l4 -237 178 -3 178 -3 44 -30 c28 -20 53 -49 71 -84 26 -52 27 -61 27
-202 l0 -148 453 -3 452 -3 65 -36 c41 -23 78 -52 100 -82 22 -28 94 -185 190
-409 l154 -363 4 -147 4 -148 333 0 334 0 20 26 c21 27 21 28 21 1230 l0 1204
-1525 0 -1525 0 0 -80z"/>
<path d="M1066 3214 c-25 -24 -27 -46 -24 -259 l3 -200 425 0 425 0 3 200 c1
110 0 210 -3 222 -13 54 -5 53 -425 53 -340 0 -391 -2 -404 -16z"/>
<path d="M552 2578 c-9 -9 -12 -96 -12 -330 l0 -318 423 2 422 3 3 304 c2 260
0 307 -13 328 l-15 23 -398 0 c-296 0 -401 -3 -410 -12z"/>
<path d="M1567 2572 c-15 -16 -17 -54 -17 -330 l0 -312 423 2 422 3 3 304 c2
260 0 307 -13 328 l-15 23 -394 0 c-368 0 -394 -1 -409 -18z"/>
<path d="M2590 1250 l0 -871 102 3 103 3 7 54 c17 115 102 227 212 278 53 24
73 28 151 28 77 0 98 -4 147 -27 114 -53 199 -165 213 -283 l7 -55 87 0 c114
0 157 13 181 53 36 59 31 64 -74 69 -117 6 -168 31 -203 97 -21 40 -23 57 -23
188 0 167 12 204 82 250 36 24 52 28 140 31 l99 4 -3 142 -4 141 -148 345
c-81 190 -155 353 -164 364 -9 10 -34 27 -54 37 -35 18 -65 19 -448 19 l-410
0 0 -870z m815 388 c50 -116 92 -215 93 -220 2 -4 -136 -8 -307 -8 l-311 0 0
220 0 220 218 0 217 0 90 -212z"/>
<path d="M391 1751 c-29 -29 -32 -77 -29 -391 l3 -285 1015 0 1015 0 3 321 c2
312 2 322 -19 347 l-20 27 -975 0 c-949 0 -975 -1 -993 -19z"/>
<path d="M3652 924 c-21 -14 -22 -22 -22 -138 0 -81 4 -126 12 -134 7 -7 44
-12 95 -12 l83 0 0 150 0 150 -73 0 c-49 0 -80 -5 -95 -16z"/>
<path d="M130 704 c0 -233 6 -257 69 -296 34 -22 48 -23 262 -26 l226 -4 7 54
c16 121 99 233 214 286 49 23 70 27 147 27 78 0 98 -4 152 -29 73 -33 154
-113 183 -180 11 -24 23 -68 28 -97 l7 -54 485 0 485 0 3 263 2 262 -1135 0
-1135 0 0 -206z"/>
<path d="M979 606 c-68 -24 -119 -76 -144 -147 -19 -53 -19 -95 0 -150 44
-123 169 -186 296 -147 152 45 210 247 107 372 -60 73 -171 104 -259 72z"/>
<path d="M3080 605 c-131 -59 -185 -195 -126 -320 78 -169 312 -181 411 -21
26 43 30 59 30 121 0 62 -4 78 -30 121 -42 68 -105 105 -187 110 -43 3 -74 0
-98 -11z"/>
</g>
</svg>
